<?xml version="1.0" encoding="UTF-8" standalone="no"?>
<!-- Created with Inkscape (http://www.inkscape.org/) -->

<svg
   width="134.2757mm"
   height="147.94203mm"
   viewBox="0 0 134.2757 147.94203"
   version="1.1"
   id="svg5"
   xml:space="preserve"
   inkscape:export-filename="persephone_shaded.svg"
   inkscape:export-xdpi="96"
   inkscape:export-ydpi="96"
   inkscape:version="1.2.1 (9c6d41e4, 2022-07-14)"
   sodipodi:docname="persephone_logo.svg"
   xmlns:inkscape="http://www.inkscape.org/namespaces/inkscape"
   xmlns:sodipodi="http://sodipodi.sourceforge.net/DTD/sodipodi-0.dtd"
   xmlns="http://www.w3.org/2000/svg"
   xmlns:svg="http://www.w3.org/2000/svg"><sodipodi:namedview
     id="namedview7"
     pagecolor="#ffffff"
     bordercolor="#000000"
     borderopacity="0.25"
     inkscape:showpageshadow="2"
     inkscape:pageopacity="0.0"
     inkscape:pagecheckerboard="0"
     inkscape:deskcolor="#d1d1d1"
     inkscape:document-units="mm"
     showgrid="false"
     inkscape:zoom="1.122631"
     inkscape:cx="124.70705"
     inkscape:cy="283.26316"
     inkscape:window-width="1792"
     inkscape:window-height="982"
     inkscape:window-x="0"
     inkscape:window-y="25"
     inkscape:window-maximized="0"
     inkscape:current-layer="layer2" /><defs
     id="defs2"><marker
       style="overflow:visible"
       id="marker4006"
       refX="3"
       refY="0"
       orient="auto-start-reverse"
       inkscape:stockid="TriangleStart"
       markerWidth="2.99982"
       markerHeight="3.4679999"
       viewBox="0 0 5.3244081 6.1553851"
       inkscape:isstock="true"
       inkscape:collect="always"
       preserveAspectRatio="xMidYMid"><path
         transform="scale(0.5)"
         style="fill:context-stroke;fill-rule:evenodd;stroke:context-stroke;stroke-width:1pt"
         d="M 5.77,0 -2.88,5 V -5 Z"
         id="path4004" /></marker></defs><g
     inkscape:groupmode="layer"
     id="layer6"
     inkscape:label="Fill Layer 2"
     style="display:inline"
     transform="translate(-38.121727,-41.557549)"><path
       style="fill:#f1e1d1;fill-opacity:1;stroke:none;stroke-width:1.03055;stroke-linecap:butt;stroke-linejoin:bevel;stroke-dasharray:none;stroke-opacity:1"
       d="m 78.420054,66.915318 0.650185,10.468355 0.793681,6.746267 5.782704,5.31023 4.039071,-0.250526 5.25812,-6.647061 12.202815,-0.198419 9.54429,-6.741594 -21.821813,-11.07286 z"
       id="path49738" /><path
       style="fill:#b0a494;fill-opacity:1;stroke:none;stroke-width:1.03055;stroke-linecap:butt;stroke-linejoin:bevel;stroke-dasharray:none;stroke-opacity:1"
       d="M 78.420054,66.915318 71.376338,77.480895 69.498013,88.985634 71.24769,86.864946 79.86392,84.129942 79.070239,77.383673 78.420054,66.915318"
       id="path52554" /><path
       style="fill:#f1e1d1;fill-opacity:1;stroke:none;stroke-width:1.03055;stroke-linecap:butt;stroke-linejoin:bevel;stroke-dasharray:none;stroke-opacity:1"
       d="m 116.69092,75.60257 -9.54429,6.741594 -2.24046,5.491046 6.27395,2.480397 -3.79355,3.939453 -6.71166,0.729525 -4.960795,-2.480395 3.793546,-3.647641 5.398509,-1.021339 2.24046,-5.491044 -12.202813,0.198421 -5.258122,6.647057 0.242001,13.183826 0.242004,13.18382 7.733001,-3.64765 10.732069,-12.600594 18.62173,-3.279698 z"
       id="path54695"
       sodipodi:nodetypes="cccccccccccccccccc" /><path
       style="fill:#b0a494;fill-opacity:1;stroke:none;stroke-width:1.03055;stroke-linecap:butt;stroke-linejoin:bevel;stroke-dasharray:none;stroke-opacity:1"
       d="m 95.714115,92.50419 3.793546,-3.647641 5.398509,-1.021339 6.27395,2.480397 -3.79355,3.939453 -6.71166,0.729525 -4.960795,-2.480395"
       id="path56079" /><path
       style="fill:#b0a494;fill-opacity:1;stroke:none;stroke-width:1.03055;stroke-linecap:butt;stroke-linejoin:bevel;stroke-dasharray:none;stroke-opacity:1"
       d="M 85.646624,89.44017 89.685695,89.189644 90.1697,115.55729 85.208908,111.03421 84.994191,94.151023 Z"
       id="path58002"
       sodipodi:nodetypes="cccccc" /><path
       style="fill:#918577;fill-opacity:1;stroke:none;stroke-width:1.03055;stroke-linecap:butt;stroke-linejoin:bevel;stroke-dasharray:none;stroke-opacity:1"
       d="m 70.906758,93.681446 3.991441,-3.28707 h 5.165389 l 4.930603,3.756647 -4.930603,2.582696 -4.776269,0.14764 -4.380561,-3.199913"
       id="path58004" /><path
       style="fill:#b0a494;fill-opacity:1;stroke:none;stroke-width:1.03055;stroke-linecap:butt;stroke-linejoin:bevel;stroke-dasharray:none;stroke-opacity:1"
       d="m 89.690005,136.41333 -0.03547,-12.11288 -5.612873,-4.07418 4.807156,-2.29833 -1.159515,-4.63219 2.480397,2.26154 7.733001,-3.64765 -3.047619,5.35908 7.983948,2.19741 -3.05303,18.12115 -10.095995,-1.17395"
       id="path60201" /><path
       style="fill:#b0a494;fill-opacity:1;stroke:none;stroke-width:1.03055;stroke-linecap:butt;stroke-linejoin:bevel;stroke-dasharray:none;stroke-opacity:1"
       d="m 99.786,137.58728 3.05303,-18.12115 20.89561,-0.4273 -9.39162,14.79181 z"
       id="path60686" /><path
       style="fill:#6d6455;fill-opacity:1;stroke:none;stroke-width:1.03055;stroke-linecap:butt;stroke-linejoin:bevel;stroke-dasharray:none;stroke-opacity:1"
       d="m 89.690005,136.41333 -5.400185,-7.27851 -5.400183,-7.2785 -2.742592,-6.9479 -4.301124,-10.89619 -0.939163,-10.330784 4.380561,3.199913 4.776269,-0.14764 4.930603,-2.582696 0.214717,16.883187 2.480395,2.26154 1.159515,4.63219 -4.807156,2.29833 5.612873,4.07418 z"
       id="path62260" /><path
       style="fill:#918577;fill-opacity:1;stroke:none;stroke-width:1.03055;stroke-linecap:butt;stroke-linejoin:bevel;stroke-dasharray:none;stroke-opacity:1"
       d="m 70.906758,93.681446 -1.408745,-4.695812 1.749677,-2.120688 8.61623,-2.735004 5.782704,5.310228 -0.652433,4.710853 -4.930603,-3.756647 h -5.165389 z"
       id="path62262" /><path
       style="fill:#918577;fill-opacity:1;stroke:none;stroke-width:1.03055;stroke-linecap:butt;stroke-linejoin:bevel;stroke-dasharray:none;stroke-opacity:1"
       d="m 85.208908,111.03421 -10.5039,-10.1378 5.654961,0.29763 4.634222,-7.043017 z"
       id="path67907" /><path
       style="fill:#6d6455;fill-opacity:1;stroke:none;stroke-width:1.03055;stroke-linecap:butt;stroke-linejoin:bevel;stroke-dasharray:none;stroke-opacity:1"
       d="m 87.040621,132.7783 c 0,0 -1.767828,10.23099 -5.805653,13.55546 28.453722,18.25399 45.908052,-15.92172 43.791022,-31.99074 -1.29135,4.69581 -1.29135,4.69581 -1.29135,4.69581 l -9.39162,14.79181 c 0,0 -9.96377,3.5252 -14.55702,3.75664 -3.580241,0.1804 -10.095995,-1.17395 -10.095995,-1.17395"
       id="path68599"
       sodipodi:nodetypes="ccccccc" /><path
       style="fill:#918577;fill-opacity:1;stroke:none;stroke-width:1.03055;stroke-linecap:butt;stroke-linejoin:bevel;stroke-dasharray:none;stroke-opacity:1"
       d="m 74.64245,150.71809 -13.358672,5.30581 c 28.696686,29.48146 60.396742,-4.52054 63.742212,-41.68088 -7.61327,25.40292 -16.41943,36.62437 -43.791022,31.99074"
       id="path82647"
       sodipodi:nodetypes="cccc" /><path
       style="fill:#b0a494;fill-opacity:1;stroke:none;stroke-width:1.03055;stroke-linecap:butt;stroke-linejoin:bevel;stroke-dasharray:none;stroke-opacity:1"
       d="m 77.619732,165.82553 c 16.446829,8.10677 47.983708,-6.58604 55.622358,-18.6562 -3.0335,-5.80931 -6.98665,-17.54843 -8.2161,-32.82631 -4.79983,22.84271 -25.279217,56.1268 -47.406258,51.48251 z"
       id="path69084"
       sodipodi:nodetypes="cccc" /><path
       style="fill:#f1e1d1;fill-opacity:1;stroke:none;stroke-width:1.03055;stroke-linecap:butt;stroke-linejoin:bevel;stroke-dasharray:none;stroke-opacity:1"
       d="m 61.283778,155.49473 c 0,0 -18.945143,10.02693 -21.86454,15.65839 -2.919399,5.63145 0,0 0,0 0,0 62.676362,40.46663 132.478172,-1.2937 -4.33279,-8.80447 -19.9011,-13.60537 -26.56955,-16.0816 -3.69312,-1.37138 -6.24054,-1.91213 -8.45848,-3.31615 -1.78687,-1.13113 -3.62729,-3.29234 -3.62729,-3.29234 0,0 -30.75245,20.91774 -44.426333,20.55128 -13.673884,-0.36646 -27.531979,-12.22588 -27.531979,-12.22588 z"
       id="path69347"
       sodipodi:nodetypes="csccssczc" /><path
       style="fill:#918577;fill-opacity:1;stroke:none;stroke-width:1.03055;stroke-linecap:butt;stroke-linejoin:bevel;stroke-dasharray:none;stroke-opacity:1"
       d="m 126.78692,102.83828 4.299,-1.75307 0.38218,-6.496971 3.05739,-4.777184 -3.24848,-0.955437 -3.40049,6.403292 -1.0896,7.57937"
       id="path70662" /><path
       style="fill:#d0c0ad;fill-opacity:1;stroke:none;stroke-width:1.03055;stroke-linecap:butt;stroke-linejoin:bevel;stroke-dasharray:none;stroke-opacity:1"
       d="m 66.577041,81.319553 c 0,0 -0.473653,-5.931369 1.867041,-13.127313 3.163225,-9.724632 9.688598,-21.587914 12.768831,-22.637872 3.095548,-1.055178 8.499029,-0.396133 12.656354,-2.155283 5.63357,-2.383816 12.265703,-0.616862 18.181223,0.502006 9.02167,1.706366 16.76934,11.432706 20.85401,18.750311 7.17378,12.851674 -0.003,26.681934 -0.003,26.681934 l -1.62424,-0.477718 -4.02051,7.17373 L 116.69092,75.60257 94.869109,64.52971 78.420056,66.915318 71.37634,77.480895 69.498015,88.985634"
       id="path69418"
       sodipodi:nodetypes="cssssscccccccc" /><path
       style="fill:#bbae9d;fill-opacity:1;stroke:none;stroke-width:1.03055;stroke-linecap:butt;stroke-linejoin:bevel;stroke-dasharray:none;stroke-opacity:1"
       d="m 126.31734,109.64721 7.63489,-7.98874 0.57326,-11.847415 -3.05739,4.777184 -0.38218,6.496971 -4.299,1.75307 -0.46958,6.80893"
       id="path71285" /><path
       style="fill:#b0a494;fill-opacity:1;stroke:none;stroke-width:1.03055;stroke-linecap:butt;stroke-linejoin:bevel;stroke-dasharray:none;stroke-opacity:1"
       d="m 70.202384,91.333538 c 0,0 -8.48734,-8.17117 -8.473777,-20.731942 0.0059,-5.430085 4.193701,-15.376821 7.488411,-18.183418 14.299603,-12.18111 29.691276,-10.2631 29.691276,-10.2631 -2.704301,0.681648 -7.5235,-0.188426 -21.404169,11.760269 -5.102662,4.39245 -7.403087,7.225555 -10.30942,18.065161 -2.816752,10.505502 2.303308,17.005126 2.303308,17.005126"
       id="path71755"
       sodipodi:nodetypes="csscssc" /><path
       style="fill:#d0c0ad;fill-opacity:1;stroke:none;stroke-width:1.03055;stroke-linecap:butt;stroke-linejoin:bevel;stroke-dasharray:none;stroke-opacity:1"
       d="m 94.855082,117.26872 3.047619,-5.35908 c 0,0 10.732069,-12.600592 10.732069,-12.600594 l 18.62173,-3.279698 -0.93916,13.617862 -2.5827,9.39162 -20.89561,0.4273 z"
       id="path73469"
       sodipodi:nodetypes="cccccccc" /><path
       style="fill:#d0c0ad;fill-opacity:1;stroke:none;stroke-width:1.03055;stroke-linecap:butt;stroke-linejoin:bevel;stroke-dasharray:none;stroke-opacity:1"
       d="m 95.714115,92.50419 3.793546,-3.647641 5.398509,-1.021339 22.35033,8.194138 -20.10987,-13.685184 -12.202815,0.198421 -5.25812,6.647059 z"
       id="path77542"
       sodipodi:nodetypes="cccccccc" /></g><g
     inkscape:groupmode="layer"
     id="layer2"
     inkscape:label="Main Layer"
     style="display:inline"
     transform="translate(-38.121727,-41.557549)"><g
       id="g10631"
       transform="translate(-12.550635,3.4017453)"><g
         id="g22106"
         transform="matrix(0.51411328,0,0,0.51411328,56.748907,72.375319)"
         style="stroke-width:1.94534;stroke-dasharray:none"><path
           id="circle8054"
           style="fill:#918577;fill-opacity:1;stroke:#000000;stroke-width:1.94534;stroke-linejoin:bevel"
           d="m 123.62523,166.25144 c 0,4.49445 -3.86783,7.36481 -8.63905,7.36481 -4.77122,0 -8.63905,-2.87036 -8.63905,-7.36481 0,-4.49445 3.86783,-8.91103 8.63905,-8.91103 4.77122,0 8.63905,4.41658 8.63905,8.91103 z"
           sodipodi:nodetypes="sssss" /><ellipse
           style="fill:#d0c0ad;fill-opacity:1;stroke:#000000;stroke-width:1.94585;stroke-linecap:butt;stroke-linejoin:bevel;stroke-dasharray:none"
           id="circle8058"
           cx="7.2672873"
           cy="233.01213"
           rx="7.2046556"
           ry="8.6023722"
           transform="matrix(0.80374757,-0.59497045,0.62078953,0.78397727,0,0)" /><path
           style="fill:none;fill-opacity:0.992405;stroke:#000000;stroke-width:1.94534;stroke-linecap:butt;stroke-linejoin:bevel;stroke-dasharray:none;marker-end:url(#marker4006)"
           d="m 86.535019,173.44848 c 0,0 9.646363,-6.76912 19.812111,-7.97014"
           id="path8200"
           sodipodi:nodetypes="cc" /><g
           id="g12967"
           transform="matrix(0.82511607,-0.34037711,0.45693513,0.93068762,-43.24449,74.095409)"
           style="fill:#d0c0ad;fill-opacity:1;stroke-width:2.02436;stroke-dasharray:none"><ellipse
             style="fill:#d0c0ad;fill-opacity:1;stroke:#000000;stroke-width:2.03204;stroke-linecap:butt;stroke-linejoin:bevel;stroke-dasharray:none"
             id="circle8060"
             cx="122.24908"
             cy="199.95238"
             rx="8.5753508"
             ry="8.3877964"
             transform="matrix(0.97867485,-0.2054155,0.32385724,0.94610596,0,0)" /><ellipse
             style="fill:#f1e1d1;fill-opacity:1;stroke:#000000;stroke-width:2.03204;stroke-linecap:butt;stroke-linejoin:bevel;stroke-dasharray:none"
             id="circle10659"
             cx="122.24908"
             cy="199.95238"
             rx="4.5708551"
             ry="4.4708848"
             transform="matrix(0.97867486,-0.2054155,0.32385724,0.94610596,0,0)" /></g><path
           style="fill:none;fill-opacity:0.992405;stroke:#000000;stroke-width:1.94534;stroke-linecap:butt;stroke-linejoin:bevel;stroke-dasharray:none;marker-end:url(#marker4006)"
           d="m 53.75936,168.93928 c 0,0 6.619889,5.09436 18.405965,8.91457"
           id="path12215"
           sodipodi:nodetypes="cc" /><ellipse
           style="fill:#918577;fill-opacity:1;stroke:#000000;stroke-width:1.94534;stroke-linecap:butt;stroke-linejoin:bevel;stroke-dasharray:none"
           id="ellipse12969"
           cx="183.71034"
           cy="66.790764"
           rx="7.5485921"
           ry="8.7011232"
           transform="rotate(45.841702)" /><g
           id="g12975"
           transform="matrix(0.56823658,0.53511573,-0.64091561,0.71838817,45.499107,-52.891125)"
           style="fill:#6d6455;fill-opacity:1;stroke-width:2.24452;stroke-dasharray:none"><ellipse
             style="fill:#6d6455;fill-opacity:1;stroke:#000000;stroke-width:2.25304;stroke-linecap:butt;stroke-linejoin:bevel;stroke-dasharray:none"
             id="circle12971"
             cx="232.57973"
             cy="122.72892"
             rx="8.5753508"
             ry="10.062352"
             transform="matrix(0.97867486,0.2054155,-0.32385724,0.94610596,0,0)" /></g><path
           style="fill:none;fill-opacity:0.992405;stroke:#000000;stroke-width:1.94534;stroke-linecap:butt;stroke-linejoin:bevel;stroke-dasharray:none;marker-end:url(#marker4006)"
           d="m 84.275374,185.29325 c 0,0 10.73853,7.47365 22.071756,10.03425"
           id="path13733"
           sodipodi:nodetypes="cc" /><path
           style="fill:none;fill-opacity:0.992405;stroke:#000000;stroke-width:1.94534;stroke-linecap:butt;stroke-linejoin:bevel;stroke-dasharray:none;marker-start:url(#marker4006)"
           d="m 143.82841,173.96587 c -7.20132,-6.02901 -20.20318,-8.48753 -20.20318,-8.48753"
           id="path13783"
           sodipodi:nodetypes="cc" /><path
           style="fill:none;fill-opacity:0.992405;stroke:#000000;stroke-width:1.94534;stroke-linecap:butt;stroke-linejoin:bevel;stroke-dasharray:none;marker-start:url(#marker4006)"
           d="m 176.44204,167.16696 c -7.15075,5.67724 -18.10588,10.05651 -18.10588,10.05651"
           id="path13785"
           sodipodi:nodetypes="cc" /><path
           style="fill:none;fill-opacity:0.992405;stroke:#000000;stroke-width:1.94534;stroke-linecap:butt;stroke-linejoin:bevel;stroke-dasharray:none;marker-start:url(#marker4006)"
           d="m 146.58528,184.57578 c -11.77722,10.82554 -22.96005,10.75172 -22.96005,10.75172"
           id="path13787"
           sodipodi:nodetypes="cc" /><path
           style="fill:none;fill-opacity:0.992405;stroke:#000000;stroke-width:1.94534;stroke-linecap:butt;stroke-linejoin:bevel;stroke-dasharray:none"
           d="m 33.232962,155.05857 c 0,0 1.279957,3.2564 8.026774,6.45868"
           id="path14647"
           sodipodi:nodetypes="cc" /><path
           style="fill:none;fill-opacity:0.992405;stroke:#000000;stroke-width:1.94534;stroke-linecap:butt;stroke-linejoin:bevel;stroke-dasharray:none"
           d="m 189.27983,158.86444 c 0,0 4.75169,-3.68648 7.42699,-7.14543"
           id="path22168"
           sodipodi:nodetypes="cc" /><path
           id="ellipse24524"
           style="fill:#b0a494;fill-opacity:1;stroke:#000000;stroke-width:2.00452;stroke-linejoin:bevel"
           d="m 123.62523,194.64029 c 0,4.49445 -3.86783,8.82513 -8.63905,8.82513 -4.77122,0 -8.63905,-4.33068 -8.63905,-8.82513 0,-4.49445 3.86783,-7.45071 8.63905,-7.45071 4.77122,0 8.63905,2.95626 8.63905,7.45071 z"
           sodipodi:nodetypes="sssss" /></g></g><path
       style="fill:none;fill-opacity:0.992405;stroke:#000000;stroke-width:1;stroke-linecap:round;stroke-linejoin:bevel;stroke-dasharray:none"
       d="m 71.376338,77.480895 -1.878325,11.504739 1.408745,4.695812 0.939163,10.330784 7.043716,17.84409 10.800368,14.55701 10.095995,1.17395 14.55702,-3.75664 9.39162,-14.79181 2.5827,-9.39162 L 127.2565,96.02935 116.69092,75.60257 94.869109,64.52971 78.420056,66.915319 Z"
       id="path357"
       sodipodi:nodetypes="ccccccccccccccc" /><path
       style="fill:none;fill-opacity:0.992405;stroke:#000000;stroke-width:1;stroke-linecap:round;stroke-linejoin:bevel;stroke-dasharray:none"
       d="m 70.906758,93.681446 3.991441,-3.28707 h 5.165391 l 4.930603,3.756649 -4.930603,2.582696 -4.776269,0.14764 z"
       id="path1063" /><path
       style="fill:none;fill-opacity:0.992405;stroke:#000000;stroke-width:1;stroke-linecap:round;stroke-linejoin:bevel;stroke-dasharray:none"
       d="m 95.714115,92.50419 3.793548,-3.647641 5.398507,-1.021339 6.27395,2.480397 -3.79355,3.939453 -6.71166,0.729527 z"
       id="path1065" /><path
       style="fill:none;fill-opacity:0.992405;stroke:#000000;stroke-width:1;stroke-linecap:round;stroke-linejoin:bevel;stroke-dasharray:none"
       d="m 85.646624,89.440172 -0.437716,21.594038 4.960792,4.52308 7.733001,-3.64765"
       id="path1805" /><path
       style="fill:none;fill-opacity:0.992405;stroke:#000000;stroke-width:1;stroke-linecap:round;stroke-linejoin:bevel;stroke-dasharray:none"
       d="m 84.041662,120.22627 4.807156,-2.29833 2.929885,1.09871 3.076381,-1.75793 7.983946,2.19741 -5.200553,4.54133 -7.983942,0.29299 z"
       id="path1807" /><path
       style="fill:none;fill-opacity:0.992405;stroke:#000000;stroke-width:1;stroke-linecap:round;stroke-dasharray:none"
       d="m 84.041662,120.22627 8.176524,0.8513 10.620844,-1.61144"
       id="path1809" /><path
       style="fill:none;fill-opacity:0.992405;stroke:#000000;stroke-width:1;stroke-linecap:round;stroke-linejoin:bevel;stroke-dasharray:none"
       d="m 89.654535,124.30045 0.03547,12.11288"
       id="path1813" /><path
       style="fill:none;fill-opacity:0.992405;stroke:#000000;stroke-width:1;stroke-linecap:round;stroke-linejoin:bevel;stroke-dasharray:none"
       d="m 90.1697,115.55729 -0.484005,-26.367646 5.258122,-6.647057 -15.079896,1.587357 5.782703,5.310228 4.039071,-0.250528"
       id="path1839" /><path
       style="fill:none;fill-opacity:0.992405;stroke:#000000;stroke-width:1;stroke-linecap:round;stroke-dasharray:none"
       d="m 94.943815,82.542585 0.396841,-7.043898 -8.928886,0.496048 -7.341529,1.388938 0.793679,6.746269"
       id="path1841"
       sodipodi:nodetypes="ccccc" /><path
       style="fill:none;fill-opacity:0.992405;stroke:#000000;stroke-width:1;stroke-linecap:round;stroke-linejoin:bevel;stroke-dasharray:none"
       d="M 95.340656,75.498687 94.869107,64.52971"
       id="path1843" /><path
       style="fill:none;fill-opacity:0.992405;stroke:#000000;stroke-width:1;stroke-linecap:round;stroke-linejoin:bevel;stroke-dasharray:none"
       d="m 78.420054,66.915318 0.650187,10.468355"
       id="path1845"
       sodipodi:nodetypes="cc" /><path
       style="fill:none;fill-opacity:0.992405;stroke:#000000;stroke-width:1;stroke-linecap:round;stroke-linejoin:bevel;stroke-dasharray:none"
       d="M 78.420054,66.915318 86.41177,75.994735 94.869105,64.52971"
       id="path1847" /><path
       style="fill:none;fill-opacity:0.992405;stroke:#000000;stroke-width:1;stroke-linecap:round;stroke-linejoin:bevel;stroke-dasharray:none"
       d="M 94.943815,82.542583 107.14663,82.344166 127.2565,96.029348"
       id="path1849" /><path
       style="fill:none;fill-opacity:0.992405;stroke:#000000;stroke-width:1;stroke-linecap:round;stroke-linejoin:bevel;stroke-dasharray:none"
       d="m 79.86392,84.12994 -8.616229,2.735006"
       id="path1851"
       sodipodi:nodetypes="cc" /><path
       style="fill:none;fill-opacity:0.992405;stroke:#000000;stroke-width:1;stroke-linecap:round;stroke-dasharray:none"
       d="m 107.14663,82.344164 9.54429,-6.741594"
       id="path1853" /><path
       style="fill:none;fill-opacity:0.992405;stroke:#000000;stroke-width:1;stroke-linecap:round;stroke-linejoin:bevel;stroke-dasharray:none"
       d="M 107.14663,82.344164 95.340656,75.498687 116.69092,75.60257"
       id="path1855" /><path
       style="fill:none;fill-opacity:0.992405;stroke:#000000;stroke-width:1;stroke-linecap:round;stroke-linejoin:bevel;stroke-dasharray:none"
       d="m 79.070239,77.383671 -7.822548,9.481275 -1.749678,2.120688"
       id="path1857"
       sodipodi:nodetypes="cc" /><path
       style="fill:none;fill-opacity:0.992405;stroke:#000000;stroke-width:1;stroke-linecap:round;stroke-linejoin:bevel;stroke-dasharray:none"
       d="m 71.376338,77.480895 7.693901,-0.09722"
       id="path1859" /><path
       style="fill:none;fill-opacity:0.992405;stroke:#000000;stroke-width:1;stroke-linecap:round;stroke-linejoin:bevel;stroke-dasharray:none"
       d="m 79.86392,84.12994 6.54785,-8.135205 8.532045,6.547848"
       id="path1861" /><path
       style="fill:none;fill-opacity:0.992405;stroke:#000000;stroke-width:1;stroke-linecap:round;stroke-dasharray:none"
       d="m 89.685695,89.189644 6.02842,3.314546"
       id="path1863" /><path
       style="fill:none;fill-opacity:0.992405;stroke:#000000;stroke-width:1;stroke-linecap:round;stroke-dasharray:none"
       d="M 99.507661,88.856549 94.943815,82.542583"
       id="path1865" /><path
       style="fill:none;fill-opacity:0.992405;stroke:#000000;stroke-width:1;stroke-linecap:round;stroke-dasharray:none"
       d="m 104.90617,87.83521 2.24046,-5.491046"
       id="path1867" /><path
       style="fill:none;fill-opacity:0.992405;stroke:#000000;stroke-width:1;stroke-linecap:round;stroke-linejoin:bevel;stroke-dasharray:none"
       d="m 95.714115,92.50419 -5.786419,9.86928"
       id="path1869" /><path
       style="fill:none;fill-opacity:0.992405;stroke:#000000;stroke-width:1;stroke-linecap:round;stroke-linejoin:bevel;stroke-dasharray:none"
       d="m 97.638475,124.00746 2.147525,13.57982 3.05303,-18.12115 11.50399,14.36451"
       id="path1871" /><path
       style="fill:none;fill-opacity:0.992405;stroke:#000000;stroke-width:1;stroke-linecap:round;stroke-linejoin:bevel;stroke-dasharray:none"
       d="m 97.902701,111.90964 -3.047619,5.35908"
       id="path1873" /><path
       style="fill:none;fill-opacity:0.992405;stroke:#000000;stroke-width:1;stroke-linecap:round;stroke-linejoin:bevel;stroke-dasharray:none"
       d="m 88.848818,117.92794 -1.159515,-4.63219"
       id="path1875" /><path
       style="fill:none;fill-opacity:0.992405;stroke:#000000;stroke-width:1;stroke-linecap:round;stroke-linejoin:bevel;stroke-dasharray:none"
       d="m 97.902701,111.90964 1.803185,-11.80691 8.928884,-0.793682 -5.03912,5.916462 -5.692949,6.68413"
       id="path1877"
       sodipodi:nodetypes="ccccc" /><path
       style="fill:none;fill-opacity:0.992405;stroke:#000000;stroke-width:1;stroke-linecap:round;stroke-linejoin:bevel;stroke-dasharray:none"
       d="m 127.2565,96.029348 -18.62173,3.279698 17.68257,10.338164 -28.414639,2.26243 25.831939,7.12919 -20.89561,0.4273"
       id="path1879" /><path
       style="fill:none;fill-opacity:0.992405;stroke:#000000;stroke-width:1;stroke-linecap:round;stroke-dasharray:none"
       d="M 99.705884,100.10273 95.714115,92.50419"
       id="path1881" /><path
       style="fill:none;fill-opacity:0.992405;stroke:#000000;stroke-width:1;stroke-linecap:round;stroke-dasharray:none"
       d="m 108.63477,99.309046 2.54535,-8.993439 16.07638,5.713741"
       id="path1883" /><path
       style="fill:none;fill-opacity:0.992405;stroke:#000000;stroke-width:1;stroke-linecap:round;stroke-linejoin:bevel;stroke-dasharray:none"
       d="m 70.906758,93.681446 3.79825,7.214964 5.654961,0.29763 4.634222,-7.043017"
       id="path1887" /><path
       style="fill:none;fill-opacity:0.992405;stroke:#000000;stroke-width:1;stroke-linecap:round;stroke-dasharray:none"
       d="m 80.359969,101.19404 4.848939,9.84017"
       id="path1891" /><path
       style="fill:none;fill-opacity:0.992405;stroke:#000000;stroke-width:1;stroke-linecap:round;stroke-linejoin:bevel;stroke-dasharray:none"
       d="m 74.705008,100.89641 10.5039,10.1378"
       id="path1895" /><path
       style="fill:none;fill-opacity:0.992405;stroke:#000000;stroke-width:1;stroke-linecap:round;stroke-linejoin:bevel;stroke-dasharray:none"
       d="m 74.705008,100.89641 -2.859087,3.11582"
       id="path1897" /><path
       style="fill:none;fill-opacity:0.992405;stroke:#000000;stroke-width:1;stroke-linecap:round;stroke-linejoin:bevel;stroke-dasharray:none"
       d="m 84.041662,120.22627 -5.152025,1.63005 8.799666,-8.56057 -11.542258,1.61267 -1.442037,-14.01201"
       id="path1899" /><path
       style="fill:none;fill-opacity:0.992405;stroke:#000000;stroke-width:1;stroke-linecap:round;stroke-linejoin:bevel;stroke-dasharray:none"
       d="m 89.690005,136.41333 -5.648343,-16.18706 0.248158,8.90855"
       id="path1901" /><path
       style="fill:none;fill-opacity:0.992405;stroke:#000000;stroke-width:1;stroke-linecap:round;stroke-linejoin:bevel;stroke-dasharray:none"
       d="M 80.063588,90.394376 79.86392,84.129942"
       id="path1903" /><path
       style="fill:none;fill-opacity:0.992405;stroke:#000000;stroke-width:1;stroke-linecap:round;stroke-linejoin:bevel;stroke-dasharray:none"
       d="m 71.24769,86.864946 3.650509,3.52943"
       id="path1905" /><path
       style="fill:none;fill-opacity:0.992405;stroke:#000000;stroke-width:1;stroke-linecap:round;stroke-linejoin:bevel;stroke-dasharray:none"
       d="m 86.856278,132.59396 c 0,0 -0.708186,13.54402 -12.213828,18.12413 -16.857334,6.71048 -23.063352,7.11456 -35.223212,20.43503"
       id="path2633"
       sodipodi:nodetypes="csc" /><path
       style="fill:none;fill-opacity:0.992405;stroke:#000000;stroke-width:1;stroke-linecap:round;stroke-linejoin:bevel;stroke-dasharray:none"
       d="m 125.02599,114.34302 c 0,0 1.75548,31.09796 11.84339,36.11865 10.08791,5.02069 27.52309,8.09382 35.02803,19.39775"
       id="path2635"
       sodipodi:nodetypes="czc" /><path
       style="fill:none;fill-opacity:0.992405;stroke:#000000;stroke-width:1;stroke-linecap:round;stroke-linejoin:bevel;stroke-dasharray:none"
       d="M 70.202384,91.333538 C 51.462192,69.003069 66.151857,40.633271 98.908294,42.155078"
       id="path2641"
       sodipodi:nodetypes="cc" /><path
       style="fill:none;fill-opacity:0.992405;stroke:#000000;stroke-width:1;stroke-linecap:round;stroke-linejoin:bevel;stroke-dasharray:none"
       d="M 70.073716,63.930209 C 75.534916,52.440773 88.602245,42.976163 98.908294,42.155078 122.48664,40.276586 144.23967,65.924612 132.90125,89.333337"
       id="path2643"
       sodipodi:nodetypes="csc" /><path
       style="fill:none;fill-opacity:0.992405;stroke:#000000;stroke-width:1;stroke-linecap:round;stroke-linejoin:bevel;stroke-dasharray:none"
       d="m 126.31734,109.64721 7.63489,-7.98874 0.57326,-11.847415 -3.24848,-0.955437 -4.02051,7.17373 4.2116,-1.441108 -0.38218,6.49697 -4.299,1.75307"
       id="path2645" /><path
       style="fill:none;fill-opacity:0.992405;stroke:#000000;stroke-width:1;stroke-linecap:round;stroke-linejoin:bevel;stroke-dasharray:none"
       d="m 134.52549,89.811055 -3.05739,4.777184 2.48413,7.070231 -2.86631,-0.57326 -4.76858,8.562"
       id="path2647" /><path
       style="fill:none;fill-opacity:0.992405;stroke:#000000;stroke-width:1;stroke-linecap:round;stroke-linejoin:bevel;stroke-dasharray:none"
       d="m 127.2565,96.029348 3.82942,5.055862"
       id="path2649" /><path
       style="fill:none;fill-opacity:0.992405;stroke:#000000;stroke-width:1;stroke-linecap:round;stroke-linejoin:bevel;stroke-dasharray:none"
       d="M 68.444082,68.19224 C 75.331229,45.356208 101.9338,45.71469 113.3284,53.195814"
       id="path2651"
       sodipodi:nodetypes="cc" /><path
       style="fill:none;fill-opacity:0.992405;stroke:#000000;stroke-width:1.03055;stroke-linecap:round;stroke-linejoin:bevel;stroke-dasharray:none"
       d="M 69.498013,88.985634 C 62.061554,78.506988 68.015424,52.392932 90.378302,58.671543"
       id="path26829"
       sodipodi:nodetypes="cc" /><path
       style="fill:none;fill-opacity:0.992405;stroke:#000000;stroke-width:1.03055;stroke-linecap:round;stroke-linejoin:bevel;stroke-dasharray:none"
       d="M 127.87652,95.258911 C 131.67545,82.875992 114.96424,42.407112 84.435646,61.78467"
       id="path26831"
       sodipodi:nodetypes="cc" /><path
       style="fill:none;fill-opacity:0.992405;stroke:#000000;stroke-width:1.03055;stroke-linecap:butt;stroke-linejoin:bevel;stroke-dasharray:none;stroke-opacity:1"
       d="m 39.419238,171.15312 c 0,0 58.831922,41.00722 132.478172,-1.2937"
       id="path30892"
       sodipodi:nodetypes="cc" /></g></svg>
